<?xml version="1.0" standalone="no"?>
<!DOCTYPE svg PUBLIC "-//W3C//DTD SVG 1.1//EN" "http://www.w3.org/Graphics/SVG/1.1/DTD/svg11.dtd" >
<!--
2013-9-30: Created.
-->
<svg>
<metadata>
Created by iconfont
</metadata>
<defs>

<font id="iconfont" horiz-adv-x="1024" >
  <font-face
    font-family="iconfont"
    font-weight="500"
    font-stretch="normal"
    units-per-em="1024"
    ascent="896"
    descent="-128"
  />
    <missing-glyph />
    
    <glyph glyph-name="x" unicode="x" horiz-adv-x="1001"
d="M281 543q-27 -1 -53 -1h-83q-18 0 -36.5 -6t-32.5 -18.5t-23 -32t-9 -45.5v-76h912v41q0 16 -0.5 30t-0.5 18q0 13 -5 29t-17 29.5t-31.5 22.5t-49.5 9h-133v-97h-438v97zM955 310v-52q0 -23 0.5 -52t0.5 -58t-10.5 -47.5t-26 -30t-33 -16t-31.5 -4.5q-14 -1 -29.5 -0.5
t-29.5 0.5h-32l-45 128h-439l-44 -128h-29h-34q-20 0 -45 1q-25 0 -41 9.5t-25.5 23t-13.5 29.5t-4 30v167h911zM163 247q-12 0 -21 -8.5t-9 -21.5t9 -21.5t21 -8.5q13 0 22 8.5t9 21.5t-9 21.5t-22 8.5zM316 123q-8 -26 -14 -48q-5 -19 -10.5 -37t-7.5 -25t-3 -15t1 -14.5
t9.5 -10.5t21.5 -4h37h67h81h80h64h36q23 0 34 12t2 38q-5 13 -9.5 30.5t-9.5 34.5q-5 19 -11 39h-368zM336 498v228q0 11 2.5 23t10 21.5t20.5 15.5t34 6h188q31 0 51.5 -14.5t20.5 -52.5v-227h-327z" />
    

    
    <glyph glyph-name="20140915070601756easyiconnet" unicode="&#58881;" d="M864 812c-79.232 0-155.392-29.472-214.528-83.04C627.008 708.64 607.776 685.536 592 660.032c-15.776 25.504-35.008 48.608-57.472 68.96C475.392 782.528 399.232 812 320 812 143.552 812 0 668.448 0 492c0-119.104 37.056-213.12 123.872-314.4 126.144-147.2 445.408-371.84 458.944-381.344 2.752-1.952 5.984-2.912 9.184-2.912s6.432 0.96 9.184 2.912c13.536 9.504 332.8 234.144 458.976 381.344C1146.944 278.88 1184 372.896 1184 492 1184 668.448 1040.448 812 864 812zM1035.872 198.4C924.032 67.968 646.112-132.512 592-171.04c-54.112 38.528-332.032 239.008-443.84 369.44C66.72 293.408 32 381.216 32 492c0 158.816 129.216 288 288 288 71.264 0 139.84-26.528 193.024-74.72 26.816-24.32 48.576-52.992 64.64-85.248 5.44-10.88 23.232-10.88 28.672 0 16.064 32.256 37.824 60.928 64.64 85.216C724.16 753.472 792.736 780 864 780c158.784 0 288-129.184 288-288C1152 381.216 1117.28 293.408 1035.872 198.4z"  horiz-adv-x="1184" />

    
    <glyph glyph-name="aiguifanfile2" unicode="&#58882;" d="M344.902796 314.849196M758.05244 760.954417 265.950629 760.954417c-38.438451 0-75.217099-31.162744-75.217099-69.612451L190.733531 24.409314c0-38.445614 36.778648-75.233472 75.217099-75.233472l293.177226 0 73.937966 0 195.10356 211.680097 5.096065 12.300141 0 77.494978L833.265446 691.341966C833.265446 729.791673 796.490891 760.954417 758.05244 760.954417L758.05244 760.954417zM618.859261 18.518141 618.859261 146.230847c0 19.222807 15.57779 34.80469 34.792411 34.80469L771.187599 181.035538 618.859261 18.518141 618.859261 18.518141zM784.423041 229.886129 653.651672 229.886129c-38.434358 0-86.448908-31.162744-86.448908-69.608358l0-162.246221L274.375509-1.968449c-19.218714 0-34.800597 15.584953-34.800597 34.80469L239.574912 677.299135c0 19.222807 15.581883 34.808784 34.800597 34.808784L749.626537 712.107919c19.218714 0 34.796504-15.585977 34.796504-34.808784L784.423041 229.886129 784.423041 229.886129zM318.147432 526.289839l387.708206 0 0 46.044686L318.147432 572.334525 318.147432 526.289839 318.147432 526.289839zM318.147432 421.872698l387.708206 0 0 46.040592L318.147432 467.913291 318.147432 421.872698 318.147432 421.872698zM318.147432 317.455557l178.910763 0 0 46.041616L318.147432 363.497173 318.147432 317.455557 318.147432 317.455557zM318.147432 213.037393l178.910763 0 0 46.040592L318.147432 259.077985 318.147432 213.037393 318.147432 213.037393zM318.147432 213.037393"  horiz-adv-x="1024" />

    
    <glyph glyph-name="my-tuikuantuihuo" unicode="&#58901;" d="M600.139 372.96l7.701 0.15v1.203c10.168 3.279 17.568 12.845 17.568 24.125 0 13.958-11.341 25.299-25.269 25.299h-98.128v21.478l102.61 100.625 4.873 5.023-0.451 0.572c2.106 3.46 3.369 7.401 3.64 11.582 0.422 6.768-1.835 13.296-6.348 18.41-8.844 9.987-25.239 11.401-36.008 1.865l-93.254-91.96-98.699 96.864c-10.017 8.905-26.863 7.942-35.707-2.106-7.61-8.544-8.333-20.876-2.557-30.172l-0.541-0.692 111.663-109.199v-22.291l-105.829-0.090v-1.203c-10.168-3.279-17.568-12.845-17.568-24.096s7.401-20.817 17.568-24.096v-1.293h105.828v-38.986l-105.828-0.060v-1.203c-10.198-3.249-17.598-12.815-17.598-24.096s7.401-20.847 17.598-24.125v-1.293h105.828v-96.804l0.090-7.701h1.203c3.279-10.168 12.845-17.568 24.096-17.568s20.817 7.401 24.096 17.568h1.293l-0 104.504h98.128l7.701 0.15v1.203c10.168 3.279 17.568 12.845 17.568 24.125 0 13.958-11.341 25.299-25.269 25.299h-98.128v38.986h98.128zM955.444 421.117c-10.555 10.73-27.741 10.818-38.413 0.323l-25.203-24.801c-6.743 223.767-189.814 403.214-415.215 403.214-229.671 0-415.854-186.185-415.854-415.854 0-229.671 186.183-415.854 415.854-415.854 127.552 0 241.064 57.961 317.331 148.386 3.132 2.358 5.697 5.207 7.633 8.639 0.38 0.478 0.833 0.891 1.211 1.37l-0.209 0.117c1.797 3.728 2.998 7.776 2.998 12.193 0 15.684-12.716 28.401-28.401 28.401-10.070 0-18.495-5.542-23.539-13.445-66.166-79.488-165.761-130.214-277.025-130.214-198.729 0-360.407 161.678-360.407 360.407 0 198.728 161.678 360.405 360.407 360.405s360.407-161.678 360.407-360.405c0-1.298-0.13-2.562-0.148-3.854l-41.004 41.118c-10.583 10.583-27.799 10.641-38.443 0.058-10.612-10.612-10.641-27.799-0.058-38.442l75.027-75.233c5.306-5.306 12.294-7.989 19.25-7.989 0.168 0 0.323 0.092 0.491 0.096 2.1-0.51 4.17-1.246 6.319-1.246 6.868 0 13.767 2.625 19.044 7.812l77.621 76.384c10.702 10.525 10.848 27.741 0.325 38.414z"  horiz-adv-x="1024" />

    
    <glyph glyph-name="daifukuan" unicode="&#58953;" d="M793.6 716.8l-51.2 0c-23.8592 66.9696-97.6896 128-172.8512 128L224.0512 844.8C148.48 844.8 63.1808 773.12 51.2 672.0512l0-576C51.2 0.512 128.512-76.8 224.0512-76.8l576 0c95.4368 0 172.7488 77.312 172.7488 172.7488l0 460.8C972.8 652.288 889.0368 716.8 793.6 716.8zM230.4 793.6l358.4 0c42.5984 0 56.832-42.496 76.8-76.8L230.4 716.8c-43.7248 0-89.7024-3.9936-120.1152-30.8224C117.1456 742.912 171.6224 793.6 230.4 793.6zM921.6 256c0-15.872-9.6256-25.6-25.6-25.6L588.8 230.4c-15.9744 0-25.6 9.728-25.6 25.6L563.2 435.2c0 15.9744 9.6256 51.2 25.6 51.2l307.2 0c15.9744 0 25.6-9.6256 25.6-25.6L921.6 256zM921.6 537.6 563.2 537.6c-31.744 0-51.2-35.4304-51.2-67.1744l0-230.4c0-31.744 25.8048-57.5488 57.5488-57.5488L921.6 179.2l0-76.8c0-63.5904-64.4096-128-128-128L230.4-25.6c-63.5904 0-128 64.4096-128 128L102.4 563.2c0 63.5904 64.4096 102.4 128 102.4l563.2 0c63.5904 0 128-38.8096 128-102.4L921.6 537.6zM614.4 332.8l76.8 0 0 51.2-76.8 0L614.4 332.8z"  horiz-adv-x="1024" />

    
    <glyph glyph-name="find" unicode="&#58907;" d="M957.573101-58.958554c-7.945973-8.057513-20.831444-8.057513-28.774347 0l-105.899912 107.529015c10.31595 8.985652 19.923772 18.7439 28.771277 29.218462L957.573101-29.743162C965.519074-37.806815 965.519074-50.876482 957.573101-58.958554zM650.949632 25.139819c-123.593899 0-223.793996 101.736079-223.793996 227.225141 0 125.497249 100.199073 227.233328 223.793996 227.233328 123.603109 0 223.793996-101.736079 223.793996-227.233328C874.742605 126.874875 774.551718 25.139819 650.949632 25.139819zM650.949632 438.276161c-101.126188 0-183.104271-83.234703-183.104271-185.912224 0-102.669334 81.978083-185.915293 183.104271-185.915293s183.107341 83.244936 183.107341 185.915293C834.05595 355.042481 752.075821 438.276161 650.949632 438.276161zM650.094148 231.709525 510.151909 231.709525c-0.955768 6.768147-1.616824 13.636578-1.616824 20.655436 0 7.0383 0.662079 13.897521 1.616824 20.665669l139.942239 0c11.707646 0 21.201881-9.246595 21.201881-20.660552C671.296029 240.961236 661.801794 231.709525 650.094148 231.709525zM650.094148 355.645209l-98.719372 0c25.681916 25.533536 60.795645 41.329291 99.574856 41.329291 6.927783 0 13.68365-0.683569 20.346397-1.642406l0-19.027355C671.296029 364.897943 661.801794 355.645209 650.094148 355.645209zM241.213737 231.709525c-9.671267 0-17.510816 7.641027-17.510816 17.065677l0 7.190773c0 9.42772 7.840572 17.065677 17.510816 17.065677l146.278551 0c-0.515746-6.843872-1.029446-13.68979-1.029446-20.665669 0-6.973832 0.5137-13.814634 1.029446-20.655436L241.213737 231.710548zM406.797983 355.645209 241.213737 355.645209c-9.671267 0-17.510816 7.641027-17.510816 17.067724l0 7.193843c0 9.42772 7.840572 17.067724 17.510816 17.067724l187.108468 0C420.063101 383.893576 412.756695 370.143411 406.797983 355.645209zM409.644821 603.536019 241.213737 603.536019c-9.671267 0-17.510816 7.641027-17.510816 17.067724l0 7.182586c0 9.42772 7.840572 17.065677 17.510816 17.065677l168.43006 0c9.671267 0 17.510816-7.637957 17.510816-17.065677l0-7.182586C427.155636 611.177046 419.316088 603.536019 409.644821 603.536019zM427.155636 496.662943c0-9.42772-7.840572-17.065677-17.510816-17.065677L241.213737 479.597265c-9.671267 0-17.510816 7.637957-17.510816 17.065677l0 7.176446c0 9.42465 7.840572 17.065677 17.510816 17.065677l168.43006 0c9.671267 0 17.510816-7.641027 17.510816-17.065677L427.154613 496.662943zM773.023922 520.905066 610.259908 520.905066c-44.944632 0-81.378425 37.000706-81.378425 82.630952L528.881482 789.443126l-366.210589 0c-22.473851 0-40.692794-18.49626-40.692794-41.312918l0-619.701954c0-22.816658 18.218944-41.309848 40.692794-41.309848l280.08914 0c11.653411-15.112186 24.712845-29.045523 39.240723-41.309848L162.66987 45.808558c-44.947701 0-81.381495 36.984333-81.381495 82.620719L81.288374 748.130208c0 45.636387 36.433794 82.628906 81.381495 82.628906 0 0 156.306952 0 305.175491 0 3.624551 0 7.264451 0 10.877745 0 10.715039 0 21.070898 0 31.519878 0l37.968753 0L799.612487 555.880649l14.097066-14.31503 0-9.199523 0-52.768831 0-15.854083c-12.700253 10.093892-26.275433 19.071358-40.686654 26.704199L773.022898 520.905066zM569.570183 745.930099l0-142.393058c0-22.819728 18.218944-41.321104 40.689724-41.321104l128.941698 0L569.570183 745.930099z"  horiz-adv-x="1024" />

    
    <glyph glyph-name="suishencaichan" unicode="&#59076;" d="M724.88504 239.203196l143.222959 0 0 47.755654L724.88504 286.95885 724.88504 239.203196 724.88504 239.203196zM820.375881 525.670603c26.373671 0 47.732118-21.405519 47.732118-47.733141l0-143.246495L701.007213 334.690968c-13.18837 0-23.877827-10.688433-23.877827-23.853267l0-95.515401c0-13.162788 10.689457-23.877827 23.877827-23.877827l167.100786 0 0-143.220912c0-26.375717-21.357424-47.733141-47.732118-47.733141L199.706903 0.490419c-26.4013 0-47.7577 21.357424-47.7577 47.733141L151.949202 525.670603 820.375881 525.670603 820.375881 525.670603zM772.617158 764.382357c11.190877 2.997264 20.383236 5.244444 29.849842 1.499144 12.263301-4.845355 17.908882-12.189623 17.908882-25.377994l0-167.099762L151.949202 573.403744 772.617158 764.382357 772.617158 764.382357zM772.617158 764.382357"  horiz-adv-x="1024" />

    
    <glyph glyph-name="guanjiaowangtubiao42" unicode="&#58938;" d="M981.333333 721.066667 981.333333 721.066667 981.333333 721.066667 981.333333 721.066667ZM192 780.8M1015.466667 550.4C1015.466667 550.4 1015.466667 550.4 1015.466667 550.4c0 4.266667 0 4.266667-4.266667 8.533333l-85.333333 213.333333c-17.066667 42.666667-59.733333 72.533333-106.666667 72.533333L209.066667 844.8c-51.2 0-89.6-25.6-106.666667-68.266667L12.8 554.666667c0 0 0-4.266667 0-4.266667C4.266667 529.066667 0 507.733333 0 486.4c0-76.8 42.666667-145.066667 106.666667-179.2 0 0 0 0 0 0 0 0 0 0 0 0l0 0c0 0 0 0 0 0 25.6-12.8 59.733333-21.333333 93.866667-21.333333 59.733333 0 115.2 25.6 153.6 72.533333 38.4-46.933333 93.866667-72.533333 153.6-72.533333 59.733333 0 115.2 25.6 153.6 72.533333 38.4-46.933333 93.866667-72.533333 153.6-72.533333 38.4 0 68.266667 8.533333 98.133333 21.333333 64 34.133333 106.666667 102.4 106.666667 179.2C1024 507.733333 1019.733333 529.066667 1015.466667 550.4L1015.466667 550.4 1015.466667 550.4zM883.2 375.466667c-17.066667-8.533333-38.4-12.8-59.733333-12.8-46.933333 0-85.333333 21.333333-110.933333 59.733333 0 4.266667-4.266667 8.533333-8.533333 17.066667-4.266667 8.533333-17.066667 12.8-34.133333 12.8-12.8 0-29.866667-4.266667-34.133333-17.066667-4.266667-4.266667-8.533333-12.8-8.533333-17.066667C597.333333 384 554.666667 358.4 512 358.4c-42.666667 0-85.333333 21.333333-110.933333 59.733333 0 4.266667-4.266667 8.533333-8.533333 12.8-17.066667 21.333333-55.466667 21.333333-72.533333 0-4.266667-4.266667-8.533333-12.8-8.533333-17.066667-25.6-38.4-64-59.733333-110.933333-59.733333-25.6 0-42.666667 4.266667-59.733333 12.8l0 0 0 0c-42.666667 21.333333-68.266667 68.266667-68.266667 115.2 0 12.8 4.266667 29.866667 8.533333 42.666667 0 0 0 0 0 4.266667l89.6 217.6c0 4.266667 8.533333 21.333333 34.133333 21.333333l605.866667 0c12.8 0 29.866667-4.266667 38.4-25.6l85.333333-213.333333c0 0 0-4.266667 0-4.266667 4.266667-12.8 8.533333-29.866667 8.533333-42.666667C951.466667 439.466667 925.866667 396.8 883.2 375.466667L883.2 375.466667 883.2 375.466667zM908.8 256c-21.333333 0-38.4-17.066667-38.4-38.4l0-200.533333c0-12.8-8.533333-21.333333-21.333333-21.333333l-695.466667 0c-12.8 0-21.333333 8.533333-21.333333 21.333333l0 196.266667c0 21.333333-17.066667 38.4-38.4 38.4l0 0c-21.333333 0-38.4-17.066667-38.4-38.4l0-196.266667c0-51.2 42.666667-93.866667 93.866667-93.866667l695.466667 0c51.2 0 93.866667 42.666667 93.866667 93.866667l0 200.533333C947.2 238.933333 930.133333 256 908.8 256L908.8 256 908.8 256zM802.133333 516.266667 209.066667 516.266667c-21.333333 0-38.4 17.066667-38.4 38.4 0 21.333333 17.066667 38.4 38.4 38.4l588.8 0c21.333333 0 38.4-17.066667 38.4-38.4C836.266667 529.066667 819.2 516.266667 802.133333 516.266667L802.133333 516.266667 802.133333 516.266667zM802.133333 516.266667"  horiz-adv-x="1024" />

    
    <glyph glyph-name="shouhuodizhi" unicode="&#58923;" d="M512 896c-141.384533 0-256-114.615467-256-256s256-576 256-576 256 434.615467 256 576S653.384533 896 512 896zM512 150.033067c-24.100267 43.025067-57.122133 103.456-89.937067 168.228267C314.698667 530.1824 298.666667 610.8032 298.666667 640c0 117.632 95.701333 213.333333 213.333333 213.333333 117.634133 0 213.333333-95.701333 213.333333-213.333333 0-29.169067-16.0064-109.7088-123.204267-321.361067C569.2736 253.764267 536.157867 193.162667 512 150.033067zM512 810.666667c-94.257067 0-170.666667-76.4096-170.666667-170.666667s76.4096-170.666667 170.666667-170.666667 170.666667 76.4096 170.666667 170.666667S606.257067 810.666667 512 810.666667zM512 512c-70.692267 0-128 57.307733-128 128s57.307733 128 128 128 128-57.307733 128-128S582.692267 512 512 512zM768.040533 270.084267c-2.338133 0.878933-4.8576 1.3824-7.505067 1.3824-11.7824 0-21.333333-9.553067-21.333333-21.333333 0-9.956267 6.830933-18.2976 16.0576-20.650667l-0.023467-0.0896c37.085867-8.821333 71.511467-19.729067 102.391467-32.5952C935.089067 164.522667 981.333333 122.8544 981.333333 85.333333s-46.244267-79.189333-123.703467-111.464533C766.0032-64.309333 643.2576-85.333333 512-85.333333c-131.2576 0-254.0032 21.024-345.627733 59.202133C88.910933 6.144 42.666667 47.812267 42.666667 85.333333s46.244267 79.189333 123.7056 111.464533c29.751467 12.3968 62.820267 22.9568 98.359467 31.601067 10.683733 1.162667 19.0016 10.208 19.0016 21.201067 0 11.780267-9.550933 21.333333-21.333333 21.333333-1.2992 0-2.564267-0.1344-3.799467-0.356267l-0.0384 0.1536C104.119467 233.998933 0 164.736 0 85.333333c0-117.821867 229.230933-213.333333 512-213.333333 282.7712 0 512 95.511467 512 213.333333C1024 164.283733 921.041067 233.1968 768.040533 270.084267z"  horiz-adv-x="1024" />

    
    <glyph glyph-name="wodezuji" unicode="&#58906;" d="M856.192 524.992c-9.792 11.712-24.576 18.752-41.024 19.712 11.072 15.232 16.192 32.384 14.208 48.512-2.048 15.424-10.432 28.48-23.68 36.672-9.28 5.76-20.544 8.768-32.768 8.768-15.424 0-31.36-4.736-45.568-13.184 0.192 0.384 0.512 0.768 0.64 1.152 10.56 22.784 11.712 47.936 3.008 68.8-7.232 17.536-20.864 30.656-38.336 37.056-7.488 2.752-15.488 4.096-23.68 4.096-16.704 0-33.344-5.824-47.68-16 0.256 21.248-4.544 41.024-14.208 56.064C597.76 791.168 584.704 800.576 569.216 803.84 565.568 804.544 561.792 804.928 558.08 804.928c-28.416 0-55.744-22.016-71.552-55.104C478.976 799.808 448 836.672 408.32 838.336L405.696 838.4c-46.016 0-84.096-49.344-86.656-112.32C317.376 685.184 330.688 649.344 352.64 627.904 274.368 578.368 290.176 515.072 305.792 453.76c12.416-48.704 25.216-99.008 0.384-156.352-20.928-48.384-48.384-68.672-75.008-88.192C194.304 182.144 156.224 154.112 155.904 64c-0.064-23.296 11.584-47.424 33.728-69.632C228.8-45.056 291.584-70.4 349.504-70.4c20.032 0 39.168 3.072 56.832 9.024 48.96 16.576 69.44 45.888 97.728 86.336 27.648 39.552 65.408 93.696 150.4 169.152C747.52 276.736 783.36 358.4 782.208 420.864c3.2-0.576 6.464-0.896 9.856-0.896 16.256 0 32.832 5.76 46.592 16.128 16.448 12.288 27.008 29.888 29.12 48.192C869.504 499.456 865.344 513.792 856.192 524.992zM484.992 639.168c-7.424 1.28-14.656 2.304-21.632 3.2C467.968 648.832 472.128 656 475.648 663.808 477.632 654.848 480.832 646.592 484.992 639.168zM585.6 612.608c0.192-0.384 0.448-0.704 0.704-1.152C580.928 613.568 575.36 615.424 569.92 617.28 573.952 619.84 577.92 622.72 581.568 626.048 582.656 621.44 583.872 616.96 585.6 612.608zM665.792 573.888c8.192 1.984 16.192 5.312 23.552 9.728C686.4 576.768 684.48 569.6 683.968 562.56 678.08 566.528 671.936 570.24 665.792 573.888zM738.304 577.792c9.472 9.856 23.04 16.32 34.624 16.32 3.84 0 7.04-0.832 9.344-2.176 1.728-1.088 2.624-2.304 2.88-4.416 0.512-4.48-1.728-12.8-10.048-21.568-9.472-9.856-23.104-16.256-34.688-16.256-3.904 0-7.04 0.704-9.344 2.048-1.728 1.152-2.56 2.368-2.752 4.48C727.616 560.768 729.984 569.152 738.304 577.792zM629.056 662.656c8 17.344 24.512 29.44 39.936 29.44 2.944 0 5.888-0.512 8.384-1.472 5.76-2.048 9.984-6.272 12.544-12.288 3.904-9.344 3.072-21.376-2.24-32.96-8.128-17.344-24.64-29.376-40-29.376-2.944 0-5.824 0.512-8.32 1.408C633.472 619.52 629.248 623.616 626.752 629.76 622.848 639.104 623.744 651.072 629.056 662.656zM519.936 710.912C527.36 743.168 546.816 760.384 558.08 760.384c0.704 0 1.408-0.128 2.112-0.192C563.648 759.424 566.784 756.864 569.6 752.576c5.952-9.344 10.432-27.84 4.864-51.84C566.976 668.544 547.456 651.392 536.256 651.392c-0.768 0-1.472 0.064-2.176 0.32-3.456 0.64-6.592 3.2-9.344 7.552C518.72 668.544 514.368 686.976 519.936 710.912zM363.52 724.224c1.728 41.024 23.552 69.568 42.944 69.568l0 0C425.536 793.024 445.44 762.944 443.776 721.024 442.048 680 420.16 651.456 401.536 651.456L400.768 651.456C381.76 652.16 361.856 682.304 363.52 724.224zM624.896 227.328c-88.832-78.848-128.384-135.424-157.312-176.768-26.88-38.464-40.448-57.792-75.584-69.888-12.992-4.288-27.264-6.592-42.496-6.592-53.12 0-102.72 25.984-128.384 51.712-13.248 13.376-20.736 27.2-20.672 38.08 0.192 67.712 22.784 84.288 57.024 109.376 28.48 20.928 63.872 46.912 89.536 106.368C377.92 350.976 361.856 414.08 348.928 464.768c-16.32 64.256-21.824 96.64 31.616 128.128 3.776 2.24 15.68 7.552 43.2 7.552 87.616 0 249.344-54.272 302.976-139.328C746.816 429.376 751.36 339.712 624.896 227.328zM811.84 471.744c-10.496-7.936-25.856-9.152-30.656-3.328-1.344 1.664-1.92 4.096-1.536 6.976 0.64 6.208 5.056 12.864 11.712 17.792 6.016 4.544 13.184 7.104 19.712 7.104 4.864 0 8.768-1.344 10.88-3.84 1.344-1.728 2.048-4.096 1.6-6.976C822.72 483.328 818.368 476.672 811.84 471.744z"  horiz-adv-x="1024" />

    
    <glyph glyph-name="jian" unicode="&#59038;" d="M921.013953 346.622718 102.986047 346.622718c-20.635993 0-37.381375 16.744359-37.381375 37.373189 0 20.635993 16.745383 37.382399 37.381375 37.382399l818.027905 0c20.669762 0 37.380352-16.746406 37.380352-37.382399C958.394305 363.367077 941.683714 346.622718 921.013953 346.622718L921.013953 346.622718zM921.013953 346.622718"  horiz-adv-x="1024" />

    
    <glyph glyph-name="home" unicode="&#58890;" d="M953.44611 377.223927L512.280545 831.94983 71.113955 378.560097c-8.628282-8.871966-9.113603-23.789976-1.043339-33.293679 8.056954-9.495513 21.602956-10.032028 30.228167-1.142656l411.952069 423.348937 411.96538-424.634937c4.135473-4.257315 9.384933-6.3614 14.618011-6.361399 5.69997 0 11.400963 2.496232 15.612203 7.460028 8.068216 9.501656 7.626922 24.398163-1.000336 33.287536z m-134.625562-9.34193c-11.805398 0-21.386917-10.551138-21.386917-23.553458v-361.165309h-171.101476V234.410354h-228.131889v-251.247124h-171.101477v361.165309c0 13.00232-9.565137 23.553458-21.386917 23.553458-11.818708 0-21.386917-10.551138-21.386916-23.553458v-408.278369h256.650167V187.302414h142.584222v-251.247124h256.650168V344.328539c-0.001024 13.00232-9.582543 23.553458-21.388965 23.553458zM669.107012 705.494873h128.327643V579.872334c0-13.019726 9.580495-23.553458 21.386917-23.553458 11.806422 0 21.39306 10.533732 21.39306 23.553458V752.602812H669.107012c-11.801302 0-21.387941-10.536804-21.387941-23.553458 0-13.019726 9.585614-23.554482 21.387941-23.554481z"  horiz-adv-x="1024" />

    
    <glyph glyph-name="weibiaoti--" unicode="&#58937;" d="M1016.192 47.616l-163.029333 212.821333a301.013333 301.013333 0 0 1 94.165333 218.410667c0 166.613333-136.021333 302.250667-303.061333 302.250667-167.210667 0-303.018667-135.637333-303.018667-302.250667 0-166.656 136.021333-302.293333 303.018667-302.293333a303.616 303.616 0 0 1 148.224 38.784l163.584-213.589334a37.674667 37.674667 0 0 1 30.250666-14.890666 36.437333 36.437333 0 0 1 22.826667 7.808 37.717333 37.717333 0 0 1 7.04 52.949333zM411.477333 478.848c0 128 104.405333 232.064 232.832 232.064s232.832-104.064 232.832-232.064c0-128.042667-104.405333-232.064-232.832-232.064s-232.832 104.021333-232.832 232.064zM264.789333 630.826667H37.888A37.76 37.76 0 0 0 0 668.458667c0 20.778667 16.896 37.674667 37.888 37.674666h226.901333c20.906667 0 37.845333-16.896 37.845334-37.674666a37.802667 37.802667 0 0 0-37.845334-37.632z m-9.130666-373.034667H37.888A37.76 37.76 0 0 0 0 295.424c0 20.736 16.896 37.674667 37.888 37.674667h217.770667c20.906667 0 37.888-16.896 37.888-37.674667a37.845333 37.845333 0 0 0-37.888-37.632z m-44.714667 186.965333H37.888a37.845333 37.845333 0 1 0 0 75.776h173.098667a37.845333 37.845333 0 1 0-0.042667-75.776z m243.669333-380.629333H37.888a37.802667 37.802667 0 1 0 0 75.733333h416.768a37.845333 37.845333 0 1 0-0.042667-75.733333z"  horiz-adv-x="1024" />

    
    <glyph glyph-name="xiao" unicode="&#59321;" d="M873.566314 828.781062H189.994704c-53.9354 0-97.903797-43.968397-97.903798-97.903797v-684.156941c0-53.936423 43.969421-97.904821 97.903798-97.904821h684.156941c53.936423 0 97.905844 43.968397 97.905844 97.904821V730.877265c-0.586354 53.9354-44.554752 97.903797-98.491175 97.903797zM447.06764 310.564477h-83.96125v-142.733818c29.185716 15.592117 55.970756 30.585599 80.363306 44.9784 0-17.59268 0.997724-34.183544 2.998287-49.777706-25.590841-12.392238-55.376215-28.786627-89.359191-49.177026-7.196912-3.997034-15.592117-10.79588-25.188682-20.391423l-31.784914 41.380456c12.791327 11.596106 19.191084 26.584472 19.191085 44.979424V310.564477h-80.363306V351.945957H319.326281v80.961939h-38.981827v41.380456h152.930042v-41.380456h-70.168106v-80.961939h83.96125v-41.38148z m0.599658 226.695069H315.728336c-17.59268-32.384571-36.583197-63.172785-56.973596-92.357478-7.600095 14.392802-15.996322 27.985378-25.188682 40.780799 38.780235 55.57269 69.764923 117.344568 92.957135 185.314613l44.979424-14.992459c-10.794857-26.79118-22.390963-52.579519-34.784224-77.365019h110.948905v-41.380456z m32.985252 115.14753c28.786627-28.388561 57.171094-60.375066 85.160565-95.956446l-37.782512-30.585598c-27.587312 38.780235-54.378491 72.566736-80.363305 101.353362l32.985252 25.188682zM794.308179 152.237519c0-46.375214-21.791305-69.567425-65.369823-69.567425-22.391986 0-54.1769 0.599657-95.356788 1.798972-2.399653 14.797008-5.200442 31.18628-8.396228 49.178049 37.581943-2.39863 66.165955-3.598968 85.761246-3.598968 26.386974 0 39.581484 11.19804 39.581484 33.58491v56.973596h-239.289921v-140.336212h-43.779086V500.076692h137.336901V670.398846h46.178739v-170.321131h143.333476V152.237519z m-73.766051 368.230596l-32.384571 28.186969c28.383444 30.783097 55.970756 64.770166 82.761936 101.95302l39.581483-29.985942c-24.39255-29.588899-54.379515-62.971194-89.958848-100.154047zM511.238149 455.097268h239.289921v-73.766051h-239.289921zM511.238149 338.151789h239.289921v-74.366731h-239.289921z"  horiz-adv-x="1024" />

    
    <glyph glyph-name="fanhui" unicode="&#58891;" d="M690.858667 768l45.269333-45.226667-346.965333-346.965333 346.965333-346.965333-45.226667-45.226667L298.666667 375.765333z"  horiz-adv-x="1024" />

    
    <glyph glyph-name="qq" unicode="&#58625;" d="M459.36 806.944c-121.184-26.976-205.824-126.624-215.712-252.928-1.024-15.712-3.424-28.32-5.12-28.32-5.12 0-16.384-21.856-16.384-31.744 0-5.12-2.4-13.312-5.472-17.76-4.096-6.496-5.12-14.336-4.096-33.12l1.376-24.928-21.504-28.32c-52.576-68.96-73.056-142.336-57.344-203.776 7.168-26.976 11.616-31.392 25.6-25.6 10.912 4.448 39.264 33.792 45.408 47.104 3.744 8.192 9.216 10.24 9.216 3.424 0-8.192 20.832-48.48 36.192-70.304 8.544-11.936 15.008-22.176 14.336-22.528-0.352-0.672-7.168-4.448-14.688-8.192-28-14.336-40.288-35.168-40.608-70.656-0.352-12.288 1.696-20.128 6.496-26.976 3.744-5.472 8.544-12.64 10.592-16.032 11.936-20.48 33.792-30.72 79.52-37.536 34.144-4.768 57.696-2.72 124.928 10.592 67.936 13.312 96.256 13.312 166.912-0.672 100-19.808 160.768-13.312 192.864 20.48 23.904 25.952 31.072 47.104 22.88 67.232-2.72 6.144-4.096 12.288-3.072 12.96 0.672 1.024-1.024 6.496-3.744 12.288-6.496 11.936-22.88 25.248-40.608 32.768l-12.288 5.12 18.080 26.624c25.253 37.802 43.231 82.636 50.807 130.92l-13.591-55.144 12.64-19.456c13.312-20.48 31.744-39.584 41.632-43.008 14.336-5.12 26.272 24.576 29.024 71.008 1.376 24.576 0.352 36.864-5.472 59.744-8.192 33.792-34.816 88.736-55.968 117.088-14.688 19.456-15.008 19.456-11.616 37.536 4.096 23.2-1.376 50.848-14.688 72.032-8.192 12.64-10.912 22.176-13.664 45.728-12.64 111.264-90.784 204.8-199.68 239.616-31.744 10.24-98.304 12.608-133.12 4.768zM606.464 684.064c15.008-9.888 25.952-33.44 28-59.040 5.472-79.2-55.968-116.384-88.736-53.6-11.264 20.832-10.912 65.888 0.352 88.416 12.96 26.976 39.936 37.536 60.416 24.224zM463.104 680.672c15.36-10.24 26.272-33.44 28-60.768 1.696-30.72-3.424-50.176-18.432-66.56-13.664-15.36-27.648-19.456-43.36-12.64-24.576 10.592-37.536 35.488-37.536 73.728 0 28.672 8.192 50.176 24.224 63.84 11.264 9.568 34.464 10.592 47.104 2.4zM610.56 515.776c44.384-11.264 92.832-36.192 92.832-48.128 0-6.496-30.048-25.6-48.48-30.72-10.912-3.424-10.592-2.4 3.424 16.384 12.288 16.384 7.168 16.736-13.664 1.024-75.776-56.992-167.264-58.368-240.992-3.072-10.24 7.52-19.104 12.96-19.808 11.936-1.024-0.672 1.696-7.168 5.792-13.984s6.496-13.312 5.472-14.336c-2.4-2.4-30.72 9.888-43.36 19.104-5.792 4.096-10.24 10.24-10.24 13.984 0 14.336 62.112 42.336 115.712 52.576 36.864 7.168 115.712 4.448 153.248-4.768zM390.048 396.32c28.32-9.888 78.496-17.408 114.336-17.408 21.504 0 31.744-1.376 31.744-4.096 0-5.12-67.232-1.376-104.448 5.792-29.344 5.472-59.392 14.688-64.16 19.104-5.472 4.768 1.696 3.744 22.528-3.424zM585.632 378.912c-5.472-1.376-18.784-2.4-29.024-2.4h-18.784l20.48 2.4c11.264 1.376 24.224 2.4 29.024 2.4 7.52 0.352 7.168 0-1.696-2.4zM309.856 328.384c2.72-1.696 2.048-13.664-2.72-46.752-8.192-54.944-6.496-76.128 7.84-92.16 12.96-15.008 35.488-23.2 63.84-23.552 47.104-0.672 51.552 5.472 51.552 71.68v43.36l28.32-3.072c103.072-10.912 202.4 9.888 275.104 58.368 10.24 6.816 19.808 10.912 21.152 9.568 12.64-12.64 17.408-95.584 8.192-132.448-27.296-105.472-121.184-179.872-233.824-184.992-79.2-3.744-144.032 20.48-197.984 74.080-40.96 40.96-64.512 89.44-69.984 145.408-2.4 26.272 2.72 70.656 10.592 89.44l4.768 11.264 14.336-8.864c8.192-4.768 16.384-9.888 18.784-11.264zM280.48 100.384c2.72-3.072 10.24-9.216 16.736-13.312 6.496-4.448 18.080-13.664 25.952-20.832 7.52-7.52 24.928-22.176 38.24-33.12 17.76-14.336 24.576-22.176 24.576-27.648 0-10.24-6.816-12.288-47.104-12.288-56.32 0-99.68 15.712-110.592 39.584-3.744 7.84-3.072 11.264 4.768 25.6 8.192 15.712 8.544 16.736 2.4 18.432-8.544 2.72-4.768 9.216 10.592 20.48 13.984 9.568 28 10.912 34.464 3.072zM774.4 101.088c19.104-9.888 26.624-25.952 11.936-25.952-4.768 0-4.768-1.024 0.672-6.816 3.424-3.744 6.816-13.984 7.84-23.2 1.376-15.36 0.672-17.056-10.912-27.296-19.104-16.736-44.384-22.88-93.536-22.176-31.392 0-43.68 1.376-47.104 5.12-7.168 6.816 1.024 16.736 25.248 30.368 30.368 17.408 42.336 26.624 46.432 34.464 2.048 4.096 8.544 8.544 14.336 10.24 6.816 1.696 13.984 7.52 20.128 16.384 10.592 15.36 11.936 15.712 24.928 8.864zM562.432 635.616c-8.192-8.864-13.312-24.928-10.912-34.144 2.72-11.264 9.216-7.84 13.664 8.192 4.448 16.736 17.408 20.832 20.48 6.816l3.424-17.76c3.424-15.36 10.24-7.168 10.24 12.288-0.352 14.688-1.696 19.104-8.192 24.224-9.888 8.192-21.504 8.192-28.672 0.352zM446.048 638.688c-13.312-14.688-12.288-43.008 2.048-53.248 10.592-7.168 15.36-6.496 24.928 3.424 6.496 6.144 8.544 11.936 8.544 23.904 0 25.6-21.504 41.312-35.488 25.952zM469.6 617.504c0-9.568-9.888-12.96-13.312-4.448-2.4 6.496 3.744 16.032 9.568 13.984 2.048-0.672 3.744-4.768 3.744-9.568z"  horiz-adv-x="1024" />

    
    <glyph glyph-name="daishouhuo" unicode="&#59077;" d="M711.48544 210.53952c-58.68544 0-108.85632-40.22784-122.10688-97.9712l-1.8944-8.50944H440.2944l-1.88928 8.50944c-13.25568 57.73824-63.8976 97.9712-122.112 97.9712-69.57056 0-125.89056-56.79104-125.89056-126.82752-1.42336-70.528 54.90176-127.31904 124.47232-127.31904 56.32 0 106.01472 38.8096 121.1648 94.18752l2.36544 8.51968h149.55008l2.37056-8.51968c14.66368-55.37792 64.83456-93.71136 121.15968-93.71136 69.57056 0 125.89056 56.79104 125.89056 126.83776-0.00512 70.0416-56.31488 126.83264-125.89056 126.83264z m-396.61056-209.18784c-44.95872 0-81.39776 36.92032-81.39776 81.87904 0 45.44 36.43904 81.87904 81.39776 81.87904 44.96384 0 81.40288-36.91008 81.40288-81.87904 0-45.42976-36.43904-81.87904-81.40288-81.87904z m396.1344 0c-44.95872 0-81.39776 36.92032-81.39776 81.87904 0 45.44 36.43904 81.87904 81.39776 81.87904 44.96384 0 81.39776-36.91008 81.39776-81.87904 0.00512-44.95872-36.43392-81.87904-81.39776-81.87904z m0 0M210.28352 328.39168H344.2176c12.30336 0 22.24128 9.92768 22.24128 22.71232V485.51936c0 12.30336-9.9328 22.72256-22.24128 22.72256s-22.2464-9.93792-22.2464-22.72256v-112.16896H210.28352c-12.30336 0-22.2464-9.93792-22.2464-22.72256a22.21568 22.21568 0 0 1 22.2464-22.23616z m0 0M880.44544 811.60704H394.38848c-39.7568 0-72.41728-32.65536-72.41728-72.88832v-104.59136L111.84128 528.11264c-0.9472-0.47616-1.89952-0.9472-2.8416-1.8944-34.54976-24.61184-53.95456-62.94016-53.95456-108.37504v-339.34336a22.21056 22.21056 0 0 1 22.24128-22.24128 22.21056 22.21056 0 0 1 22.2464 22.24128V417.8432c0 30.2848 10.89024 53.47328 32.66048 70.0416l1.8944 0.95232L353.6896 600.04864c0.94208 0.95744 1.88416 1.42336 2.83648 2.37056l0.9472 0.47104c1.41824 0.95232 2.37056 1.42336 2.8416 2.37056 0.47104 0.47616 0.9472 1.41824 1.41824 2.37056l1.41824 2.8416c0.47104 0.9472 1.41312 1.88928 1.41312 2.36032 0.47616 0.48128 0.47616 1.8944 0.47616 3.31776v1.41312c0 1.41824 0.47616 2.36032 0.95232 3.30752V739.2c0 15.13984 12.29824 27.92448 27.91936 27.92448h486.06208c24.61184 0 44.48768-20.36224 44.48768-45.44v-640.34304c0-12.30848 9.9328-22.72256 22.24128-22.72256s22.25152 9.93792 22.25152 22.72256V721.21344c0.47104 49.68448-39.296 90.3936-88.50944 90.3936z m0 0"  horiz-adv-x="1024" />

    
    <glyph glyph-name="nav_my_sel" unicode="&#59003;" d="M952.32 345.088c0-52.224-43.008-95.232-97.28-95.232-1.024 0-2.048 0-3.072 1.024-35.84-157.696-168.96-265.216-342.016-265.216h-1.024c-173.056 0-305.152 106.496-342.016 264.192-53.248 0-96.256 43.008-96.256 95.232 0 26.624 11.264 50.176 28.672 67.584v3.072c-1.024 13.312-1.024 26.624 0 41.984-3.072 135.168 38.912 252.928 115.712 330.752 71.68 70.656 171.008 107.52 289.792 107.52h2.048c118.784 0 218.112-37.888 288.768-108.544 76.8-77.824 118.784-195.584 115.712-330.752v-34.816c24.576-17.408 40.96-45.056 40.96-76.8zM158.72 404.48l-2.048 2.048c-29.696-5.12-53.248-30.72-53.248-61.44 0-32.768 25.6-59.392 57.344-62.464-3.072 18.432-4.096 37.888-4.096 57.344v17.408c0 6.144 1.024 20.48 2.048 47.104zM828.416 405.504c-149.504-20.48-266.24-1.024-347.136 58.368-75.776 55.296-94.208 126.976-98.304 146.432-4.096 11.264-7.168 23.552-10.24 35.84 4.096 12.288-33.792-186.368-181.248-237.568-1.024-20.48-2.048-43.008-2.048-50.176v-18.432c0-189.44 131.072-321.536 318.464-322.56h2.048c188.416 1.024 319.488 133.12 319.488 322.56v23.552c0 2.048 0 16.384-1.024 41.984zM861.184 407.552c1.024-27.648 2.048-43.008 2.048-45.056v-23.552c0-19.456-1.024-38.912-4.096-57.344 33.792 1.024 61.44 28.672 61.44 62.464-1.024 33.792-26.624 60.416-59.392 63.488zM754.688 272.384c-1.024 0-2.048-1.024-4.096-1.024-5.12 0-10.24 3.072-12.288 9.216-1.024 2.048-17.408 53.248-63.488 53.248s-62.464-51.2-63.488-53.248c-2.048-6.144-9.216-10.24-15.36-8.192-6.144 2.048-10.24 9.216-8.192 15.36 1.024 3.072 22.528 71.68 87.040 71.68s87.040-68.608 87.040-71.68c3.072-7.168-1.024-13.312-7.168-15.36zM414.72 272.384c-1.024 0-2.048-1.024-4.096-1.024-5.12 0-10.24 3.072-12.288 9.216-1.024 2.048-17.408 53.248-63.488 53.248s-62.464-51.2-63.488-53.248c-2.048-6.144-9.216-10.24-15.36-8.192-6.144 2.048-10.24 9.216-8.192 15.36 1.024 3.072 22.528 71.68 87.040 71.68s87.040-68.608 87.040-71.68c3.072-7.168-1.024-13.312-7.168-15.36zM417.792-13.312c22.528 13.312 92.16-47.104 92.16-47.104s69.632 60.416 92.16 47.104c24.576-14.336 26.624-101.376 0-112.64-23.552-10.24-92.16 47.104-92.16 47.104s-68.608-58.368-92.16-47.104c-25.6 10.24-24.576 97.28 0 112.64z"  horiz-adv-x="1024" />

    
    <glyph glyph-name="daipingjia" unicode="&#58962;" d="M849.344 443.523c-14.937 0-25.941-12.124-25.941-27.035V59.48c0-35.553-27.516-65.835-63.047-65.835H199.705c-35.528 0-76.84 30.282-76.84 65.835v562.3c0 35.656 41.313 73.594 76.84 73.594h301.909c14.935 0 26.982 11.056 26.982 26.02 0 14.961-12.047 25.969-26.982 25.969h-301.91c-70.957 0-128.725-54.32-128.725-125.581V59.48c0-71.213 57.768-117.824 128.726-117.824h560.65c71.008 0 114.934 46.611 114.934 117.824V416.488c0 14.91-11.035 27.035-25.945 27.035z m80.393 267.622L838.26 802.746c-30.048 30.176-82.925 30.176-112.978 0L650.6 714.797 252.58 333.053l-26.253-228.756 12.637-11.046 222.455 30.332L842.016 522.85l87.722 71.77c31.136 31.217 31.136 85.283-0.001 116.524zM289.77 156.997l6.53 107.083 98.675-98.806-105.204-8.278z m152.702 36.174l-120.71 120.864 355.844 354.66 118.483-118.71L442.473 193.17z m449.605 442.404l-53.03-53.128-129.13 129.358 53 53.155c5.02 5.02 11.696 7.76 18.842 7.76 7.153 0 13.845-2.74 18.842-7.76l91.423-91.548c10.423-10.447 10.423-27.387 0.053-37.837z"  horiz-adv-x="1024" />

    
    <glyph glyph-name="daiziti" unicode="&#58902;" d="M906.24 880.64H115.2C51.2 880.64 0 829.44 0 765.44v-778.24C0-76.8 51.2-128 115.2-128h788.48c64 0 115.2 51.2 115.2 115.2V765.44c2.56 64-51.2 115.2-112.64 115.2zM412.16 834.56h194.56v-419.84l-74.24 38.4c-7.68 5.12-15.36 5.12-23.04 5.12-7.68 0-17.92-2.56-23.04-5.12l-74.24-38.4V834.56zM46.08 765.44c0 38.4 30.72 69.12 69.12 69.12h250.88v-189.44H46.08V765.44z m929.28-778.24c0-38.4-30.72-69.12-69.12-69.12H115.2c-38.4 0-69.12 30.72-69.12 69.12V599.04h320v-222.72c0-12.8 10.24-23.04 23.04-23.04 2.56 0 7.68 0 10.24 2.56l107.52 56.32h5.12l107.52-56.32c2.56-2.56 7.68-2.56 10.24-2.56 12.8 0 23.04 10.24 23.04 23.04V834.56h250.88c38.4 0 69.12-30.72 69.12-69.12l2.56-778.24zM253.44 488.96H161.28c-12.8 0-23.04-10.24-23.04-23.04s10.24-23.04 23.04-23.04h92.16c12.8 0 23.04 10.24 23.04 23.04s-10.24 23.04-23.04 23.04z"  horiz-adv-x="1024" />

    
    <glyph glyph-name="yonghushezhi" unicode="&#58885;" d="M435.2-128v51.2c0 97.28-51.2 128-92.16 128-40.96-5.12-76.8-20.48-102.4-51.2l-35.84-35.84L97.28 76.8l35.84 35.84c61.44 61.44 56.32 107.52 46.08 133.12s-40.96 61.44-128 61.44H0v153.6h51.2c87.04 0 117.76 40.96 122.88 61.44s15.36 71.68-46.08 133.12L97.28 691.2 204.8 798.72l35.84-35.84c25.6-30.72 61.44-46.08 102.4-51.2 46.08 0 92.16 35.84 92.16 128V896h153.6v-56.32c0-35.84 10.24-71.68 35.84-102.4 15.36-15.36 35.84-25.6 61.44-25.6 40.96 5.12 76.8 20.48 102.4 51.2l30.72 35.84L926.72 691.2l-35.84-35.84c-61.44-61.44-56.32-107.52-46.08-133.12 10.24-20.48 40.96-61.44 122.88-61.44h51.2v-153.6h-51.2c-87.04 0-117.76-40.96-122.88-61.44s-15.36-71.68 46.08-133.12l35.84-35.84-107.52-107.52-35.84 35.84c-25.6 30.72-61.44 46.08-102.4 51.2-20.48 0-40.96-10.24-61.44-25.6-25.6-30.72-35.84-66.56-35.84-102.4V-128H435.2zM512 634.88c-138.24 0-250.88-112.64-250.88-250.88s112.64-250.88 250.88-250.88 250.88 112.64 250.88 250.88-112.64 250.88-250.88 250.88z"  horiz-adv-x="1024" />

    


  </font>
</defs>
</svg>
